<?xml version="1.0" standalone="no"?>
<!DOCTYPE svg PUBLIC "-//W3C//DTD SVG 20010904//EN"
 "http://www.w3.org/TR/2001/REC-SVG-20010904/DTD/svg10.dtd">
<svg version="1.0" xmlns="http://www.w3.org/2000/svg"
 width="96.000000pt" height="96.000000pt" viewBox="0 0 96.000000 96.000000"
 preserveAspectRatio="xMidYMid meet">
<metadata>
Created by potrace 1.14, written by Peter Selinger 2001-2017
</metadata>
<g transform="translate(0.000000,96.000000) scale(0.100000,-0.100000)"
fill="#000000" stroke="none">
<path d="M387 887 c-3 -7 -22 -14 -43 -15 -44 -3 -57 -10 -48 -23 3 -6 0 -10
-7 -8 -31 4 -49 -2 -49 -16 0 -8 -7 -15 -15 -15 -8 0 -15 -7 -15 -15 0 -8 -7
-15 -15 -15 -8 0 -15 -7 -15 -15 0 -8 -7 -15 -15 -15 -8 0 -15 -7 -15 -15 0
-8 -5 -14 -11 -12 -10 2 -18 -17 -21 -50 -1 -7 -7 -13 -15 -13 -8 0 -13 -11
-13 -29 0 -16 -6 -31 -14 -34 -20 -8 -18 -243 1 -239 9 1 13 -11 13 -34 0 -29
3 -35 16 -30 12 4 15 2 10 -9 -3 -8 -1 -15 3 -15 5 0 7 -9 4 -20 -4 -16 -2
-19 11 -14 11 4 16 1 16 -10 0 -9 7 -16 16 -16 10 0 14 -6 10 -15 -4 -10 1
-15 14 -15 11 0 20 -5 20 -11 0 -5 -5 -7 -12 -3 -7 4 -8 3 -4 -4 4 -7 15 -12
26 -12 10 0 20 -7 24 -15 3 -8 17 -15 31 -15 16 0 25 -6 25 -15 0 -10 10 -15
31 -15 21 0 30 -4 26 -13 -3 -9 19 -13 90 -15 76 -3 93 -1 87 10 -5 9 -2 9 10
-2 16 -12 19 -12 26 1 5 8 25 16 46 17 44 3 57 10 48 24 -5 7 -1 9 9 5 10 -3
17 -2 17 3 0 5 7 7 15 3 10 -3 15 0 13 8 -2 7 7 15 19 17 14 2 20 8 16 18 -3
8 1 14 11 14 9 0 16 7 16 15 0 8 6 15 14 15 8 0 18 9 21 20 4 11 11 18 16 15
5 -4 9 5 9 19 0 14 7 29 14 33 9 5 16 26 17 50 2 23 6 40 10 37 5 -3 5 -12 2
-22 -3 -9 -3 -14 1 -10 4 3 10 21 12 38 4 25 3 30 -8 24 -10 -6 -11 -5 -1 7
19 24 15 140 -6 157 -14 12 -14 13 4 8 19 -6 19 -5 3 8 -11 8 -18 27 -18 46 0
25 -3 31 -16 26 -12 -4 -15 -2 -10 9 3 8 1 15 -3 15 -5 0 -7 9 -4 20 4 16 2
19 -11 14 -11 -4 -16 -1 -16 10 0 9 -7 16 -16 16 -10 0 -14 6 -10 15 4 10 -1
15 -14 15 -11 0 -20 5 -20 11 0 5 5 7 12 3 7 -4 8 -3 4 4 -4 7 -15 12 -26 12
-10 0 -20 7 -24 15 -3 8 -17 15 -31 15 -16 0 -25 6 -25 15 0 10 -10 15 -31 15
-21 0 -30 4 -26 13 3 9 -19 13 -90 15 -76 3 -93 1 -87 -10 5 -10 4 -11 -7 0
-17 15 -26 15 -32 -1z m-301 -502 c1 -8 -1 -17 -5 -19 -4 -3 -7 6 -7 19 0 25
8 25 12 0z"/>
</g>
</svg>
